<svg width="27" height="27" viewBox="0 0 27 27" fill="none" xmlns="http://www.w3.org/2000/svg">
<path d="M9.334 18.132C8.234 18.132 7.376 17.8277 6.76 17.219C6.15133 16.6103 5.847 15.7413 5.847 14.612V10.3H7.629V14.546C7.629 15.9247 8.201 16.614 9.345 16.614C9.90233 16.614 10.3277 16.449 10.621 16.119C10.9143 15.7817 11.061 15.2573 11.061 14.546V10.3H12.821V14.612C12.821 15.7413 12.513 16.6103 11.897 17.219C11.2883 17.8277 10.434 18.132 9.334 18.132ZM20.0418 16.35H16.4668L15.7848 18H13.9588L17.3908 10.3H19.1508L22.5938 18H20.7238L20.0418 16.35ZM19.4808 14.997L18.2598 12.049L17.0388 14.997H19.4808Z" fill="#00FEFF"/>
<circle cx="13.5" cy="13.5" r="13" stroke="#00FEFF"/>
</svg>
